<?xml version="1.0" encoding="UTF-8" standalone="no"?>
<svg
   xmlns:dc="http://purl.org/dc/elements/1.1/"
   xmlns:cc="http://creativecommons.org/ns#"
   xmlns:rdf="http://www.w3.org/1999/02/22-rdf-syntax-ns#"
   xmlns:svg="http://www.w3.org/2000/svg"
   xmlns="http://www.w3.org/2000/svg"
   xmlns:sodipodi="http://sodipodi.sourceforge.net/DTD/sodipodi-0.dtd"
   xmlns:inkscape="http://www.inkscape.org/namespaces/inkscape"
   width="210mm"
   height="297mm"
   viewBox="0 0 210 297"
   version="1.1"
   id="svg26"
   inkscape:version="1.0.2 (e86c870879, 2021-01-15)"
   sodipodi:docname="paw.svg">
  <defs
     id="defs20" />
  <sodipodi:namedview
     id="base"
     pagecolor="#ffffff"
     bordercolor="#666666"
     borderopacity="1.0"
     inkscape:pageopacity="0.0"
     inkscape:pageshadow="2"
     inkscape:zoom="2.8"
     inkscape:cx="60.059472"
     inkscape:cy="1078.8946"
     inkscape:document-units="mm"
     inkscape:current-layer="layer1"
     inkscape:document-rotation="0"
     showgrid="false"
     inkscape:window-width="2560"
     inkscape:window-height="1376"
     inkscape:window-x="0"
     inkscape:window-y="0"
     inkscape:window-maximized="1" />
  <metadata
     id="metadata23">
    <rdf:RDF>
      <cc:Work
         rdf:about="">
        <dc:format>image/svg+xml</dc:format>
        <dc:type
           rdf:resource="http://purl.org/dc/dcmitype/StillImage" />
        <dc:title></dc:title>
      </cc:Work>
    </rdf:RDF>
  </metadata>
  <g
     inkscape:label="Layer 1"
     inkscape:groupmode="layer"
     id="layer1">
    <path
       style="fill:#000000;fill-opacity:1;stroke:none;stroke-width:0.264583"
       d="m 19.666368,242.88849 c -0.233532,0.003 -0.473086,0.0144 -0.711068,0.0331 -9.478328,1.63605 -14.689878,11.65869 -15.445052,20.49694 -1.103498,8.01989 2.43074,18.32782 11.236523,20.12487 1.277276,0.24318 2.604453,0.13204 3.852995,-0.20671 10.60368,-3.55557 15.348942,-16.11393 13.816211,-26.51621 -0.445553,-6.7184 -5.510104,-14.02429 -12.749609,-13.93196 z m -40.183595,0.42994 c -5.893578,0.14467 -10.484534,6.12204 -11.418424,11.74089 -1.968738,11.13216 3.095186,24.96393 14.692643,28.48405 1.0863,0.23624 2.209932,0.26057 3.307292,0.0909 7.838651,-1.30638 11.159332,-10.09487 10.831381,-17.18965 -0.235929,-9.35897 -5.097437,-20.1806 -14.816668,-22.81204 -0.888415,-0.23559 -1.754285,-0.33486 -2.596224,-0.3142 z m 65.864714,31.61771 c -10.195533,0.60997 -17.185388,10.78276 -18.181835,20.28197 -1.34927,6.85104 2.303171,16.01431 10.120312,16.56126 10.89996,-0.13435 18.335902,-11.78151 18.644856,-21.80332 0.689451,-6.62816 -3.214952,-14.67394 -10.583333,-15.03991 z m -89.238997,2.25723 c -4.33758,-0.0373 -8.60361,2.56085 -10.021094,6.97012 -3.781609,11.79486 3.812355,26.73301 16.304948,29.21165 5.213773,0.8922 9.794967,-3.11173 11.087695,-7.92923 2.739654,-10.30415 -2.887491,-22.26872 -12.410612,-26.94616 -1.551496,-0.87072 -3.263624,-1.29178 -4.960937,-1.30638 z M 1.815261,298.3435 c -8.503543,0.0181 -17.140439,4.33339 -22.64668,10.75696 -5.947146,7.48697 -10.818879,16.19952 -12.724805,25.64805 -2.315475,6.80151 2.93248,14.62893 10.202995,14.67611 8.746834,0.24296 16.264135,-5.76341 24.961784,-6.20944 7.379256,-1.12493 13.986695,2.71335 20.620964,5.22552 5.648669,2.41599 13.454141,1.49012 16.33802,-4.58887 2.268432,-6.1962 -1.070477,-12.80319 -3.836458,-18.30586 C 29.089582,316.61443 23.045732,307.22733 13.795925,301.65079 10.088343,299.3527 5.968153,298.33464 1.815261,298.3435 Z"
       id="path1575" />
  </g>
</svg>
