999
"DXF R12 Output" (www.mydxf.blogspot.com)
 0 
SECTION
 2 
HEADER
 9 
$ACADVER
 1 
AC1009
 9 
$EXTMIN
 10 
 0 
 20 
 0 
 9 
$EXTMAX
 10 
 8.5 
 20 
 11 
 0 
ENDSEC
 0 
SECTION
 2 
ENTITIES
0
LINE
8
Layer 1
10
5.550280
20
15.271500
11
5.349601
21
15.262158
0
LINE
8
Layer 1
10
5.349601
20
15.262158
11
4.403030
21
14.983338
0
LINE
8
Layer 1
10
4.403030
20
14.983338
11
3.569977
21
14.514277
0
LINE
8
Layer 1
10
3.569977
20
14.514277
11
2.851069
21
13.886628
0
LINE
8
Layer 1
10
2.851069
20
13.886628
11
2.246935
21
13.132046
0
LINE
8
Layer 1
10
2.246935
20
13.132046
11
1.385493
21
11.368700
0
LINE
8
Layer 1
10
1.385493
20
11.368700
11
0.990671
21
9.477468
0
LINE
8
Layer 1
10
0.990671
20
9.477468
11
1.005306
21
7.706472
0
LINE
8
Layer 1
10
1.005306
20
7.706472
11
1.527536
21
5.979046
0
LINE
8
Layer 1
10
1.527536
20
5.979046
11
1.984240
21
5.220960
0
LINE
8
Layer 1
10
1.984240
20
5.220960
11
2.574131
21
4.580912
0
LINE
8
Layer 1
10
2.574131
20
4.580912
11
3.299306
21
4.094616
0
LINE
8
Layer 1
10
3.299306
20
4.094616
11
4.161861
21
3.797788
0
LINE
8
Layer 1
10
4.161861
20
3.797788
11
5.249261
21
3.856127
0
LINE
8
Layer 1
10
5.249261
20
3.856127
11
6.293749
21
4.345373
0
LINE
8
Layer 1
10
6.293749
20
4.345373
11
7.181846
21
5.035912
0
LINE
8
Layer 1
10
7.181846
20
5.035912
11
7.912164
21
5.890839
0
LINE
8
Layer 1
10
7.912164
20
5.890839
11
8.483316
21
6.873248
0
LINE
8
Layer 1
10
8.483316
20
6.873248
11
8.893913
21
7.946233
0
LINE
8
Layer 1
10
8.893913
20
7.946233
11
9.142568
21
9.072888
0
LINE
8
Layer 1
10
9.142568
20
9.072888
11
9.227893
21
10.216308
0
LINE
8
Layer 1
10
9.227893
20
10.216308
11
9.148501
21
11.339587
0
LINE
8
Layer 1
10
9.148501
20
11.339587
11
8.820548
21
12.757520
0
LINE
8
Layer 1
10
8.820548
20
12.757520
11
8.068418
21
14.026340
0
LINE
8
Layer 1
10
8.068418
20
14.026340
11
6.956774
21
14.934762
0
LINE
8
Layer 1
10
6.956774
20
14.934762
11
6.286342
21
15.187795
0
LINE
8
Layer 1
10
6.286342
20
15.187795
11
5.550281
21
15.271497
0
LINE
8
Layer 1
10
5.550281
20
15.271497
11
5.550280
21
15.271500
0
LINE
8
Layer 1
10
-5.790420
20
15.150161
11
-6.958582
21
14.838195
0
LINE
8
Layer 1
10
-6.958582
20
14.838195
11
-7.926588
21
14.072744
0
LINE
8
Layer 1
10
-7.926588
20
14.072744
11
-8.632142
21
13.017617
0
LINE
8
Layer 1
10
-8.632142
20
13.017617
11
-9.012950
21
11.836621
0
LINE
8
Layer 1
10
-9.012950
20
11.836621
11
-9.128547
21
10.629927
0
LINE
8
Layer 1
10
-9.128547
20
10.629927
11
-9.059722
21
9.394838
0
LINE
8
Layer 1
10
-9.059722
20
9.394838
11
-8.808126
21
8.174385
0
LINE
8
Layer 1
10
-8.808126
20
8.174385
11
-8.375410
21
7.011601
0
LINE
8
Layer 1
10
-8.375410
20
7.011601
11
-7.763225
21
5.949518
0
LINE
8
Layer 1
10
-7.763225
20
5.949518
11
-6.973221
21
5.031167
0
LINE
8
Layer 1
10
-6.973221
20
5.031167
11
-6.007049
21
4.299581
0
LINE
8
Layer 1
10
-6.007049
20
4.299581
11
-4.866360
21
3.797791
0
LINE
8
Layer 1
10
-4.866360
20
3.797791
11
-3.932969
21
3.772137
0
LINE
8
Layer 1
10
-3.932969
20
3.772137
11
-3.162669
21
4.004319
0
LINE
8
Layer 1
10
-3.162669
20
4.004319
11
-2.509031
21
4.404118
0
LINE
8
Layer 1
10
-2.509031
20
4.404118
11
-1.969181
21
4.941187
0
LINE
8
Layer 1
10
-1.969181
20
4.941187
11
-1.540244
21
5.585179
0
LINE
8
Layer 1
10
-1.540244
20
5.585179
11
-1.003607
21
7.072544
0
LINE
8
Layer 1
10
-1.003607
20
7.072544
11
-0.876119
21
8.623437
0
LINE
8
Layer 1
10
-0.876119
20
8.623437
11
-1.171851
21
10.639251
0
LINE
8
Layer 1
10
-1.171851
20
10.639251
11
-1.963266
21
12.554464
0
LINE
8
Layer 1
10
-1.963266
20
12.554464
11
-2.546773
21
13.394534
0
LINE
8
Layer 1
10
-2.546773
20
13.394534
11
-3.256504
21
14.113679
0
LINE
8
Layer 1
10
-3.256504
20
14.113679
11
-4.093227
21
14.679975
0
LINE
8
Layer 1
10
-4.093227
20
14.679975
11
-5.057709
21
15.061497
0
LINE
8
Layer 1
10
-5.057709
20
15.061497
11
-5.790421
21
15.150171
0
LINE
8
Layer 1
10
-5.790421
20
15.150171
11
-5.790420
21
15.150161
0
LINE
8
Layer 1
10
12.798080
20
6.226951
11
11.763000
21
6.041530
0
LINE
8
Layer 1
10
11.763000
20
6.041530
11
10.821956
21
5.636949
0
LINE
8
Layer 1
10
10.821956
20
5.636949
11
9.984169
21
5.047060
0
LINE
8
Layer 1
10
9.984169
20
5.047060
11
9.258857
21
4.305720
0
LINE
8
Layer 1
10
9.258857
20
4.305720
11
8.655242
21
3.446782
0
LINE
8
Layer 1
10
8.655242
20
3.446782
11
8.182543
21
2.504101
0
LINE
8
Layer 1
10
8.182543
20
2.504101
11
7.666770
21
0.502931
0
LINE
8
Layer 1
10
7.666770
20
0.502931
11
7.642157
21
-1.021366
0
LINE
8
Layer 1
10
7.642157
20
-1.021366
11
8.124746
21
-2.501225
0
LINE
8
Layer 1
10
8.124746
20
-2.501225
11
8.549320
21
-3.134130
0
LINE
8
Layer 1
10
8.549320
20
-3.134130
11
9.092389
21
-3.647494
0
LINE
8
Layer 1
10
9.092389
20
-3.647494
11
9.751185
21
-4.005171
0
LINE
8
Layer 1
10
9.751185
20
-4.005171
11
10.522940
21
-4.171019
0
LINE
8
Layer 1
10
10.522940
20
-4.171019
11
11.628673
21
-4.011738
0
LINE
8
Layer 1
10
11.628673
20
-4.011738
11
12.630640
21
-3.591298
0
LINE
8
Layer 1
10
12.630640
20
-3.591298
11
13.516724
21
-2.953153
0
LINE
8
Layer 1
10
13.516724
20
-2.953153
11
14.274814
21
-2.140753
0
LINE
8
Layer 1
10
14.274814
20
-2.140753
11
14.892793
21
-1.197550
0
LINE
8
Layer 1
10
14.892793
20
-1.197550
11
15.358549
21
-0.166995
0
LINE
8
Layer 1
10
15.358549
20
-0.166995
11
15.659966
21
0.907459
0
LINE
8
Layer 1
10
15.659966
20
0.907459
11
15.784930
21
1.982361
0
LINE
8
Layer 1
10
15.784930
20
1.982361
11
15.692755
21
3.420218
0
LINE
8
Layer 1
10
15.692755
20
3.420218
11
15.144292
21
4.767405
0
LINE
8
Layer 1
10
15.144292
20
4.767405
11
14.708294
21
5.331777
0
LINE
8
Layer 1
10
14.708294
20
5.331777
11
14.169435
21
5.783217
0
LINE
8
Layer 1
10
14.169435
20
5.783217
11
13.531452
21
6.091638
0
LINE
8
Layer 1
10
13.531452
20
6.091638
11
12.798080
21
6.226951
0
LINE
8
Layer 1
10
12.798080
20
6.226951
11
12.798080
21
6.226951
0
LINE
8
Layer 1
10
-12.387120
20
5.589911
11
-13.289208
21
5.461982
0
LINE
8
Layer 1
10
-13.289208
20
5.461982
11
-14.110250
21
5.076946
0
LINE
8
Layer 1
10
-14.110250
20
5.076946
11
-14.776769
21
4.456612
0
LINE
8
Layer 1
10
-14.776769
20
4.456612
11
-15.215290
21
3.622791
0
LINE
8
Layer 1
10
-15.215290
20
3.622791
11
-15.468590
21
2.341520
0
LINE
8
Layer 1
10
-15.468590
20
2.341520
11
-15.442333
21
1.028686
0
LINE
8
Layer 1
10
-15.442333
20
1.028686
11
-15.157940
21
-0.264108
0
LINE
8
Layer 1
10
-15.157940
20
-0.264108
11
-14.636833
21
-1.485259
0
LINE
8
Layer 1
10
-14.636833
20
-1.485259
11
-13.900431
21
-2.583164
0
LINE
8
Layer 1
10
-13.900431
20
-2.583164
11
-12.970156
21
-3.506222
0
LINE
8
Layer 1
10
-12.970156
20
-3.506222
11
-11.867428
21
-4.202827
0
LINE
8
Layer 1
10
-11.867428
20
-4.202827
11
-10.613670
21
-4.621379
0
LINE
8
Layer 1
10
-10.613670
20
-4.621379
11
-9.555275
21
-4.569144
0
LINE
8
Layer 1
10
-9.555275
20
-4.569144
11
-8.634096
21
-4.106754
0
LINE
8
Layer 1
10
-8.634096
20
-4.106754
11
-7.920407
21
-3.342226
0
LINE
8
Layer 1
10
-7.920407
20
-3.342226
11
-7.484480
21
-2.383579
0
LINE
8
Layer 1
10
-7.484480
20
-2.383579
11
-7.302755
21
-1.276023
0
LINE
8
Layer 1
10
-7.302755
20
-1.276023
11
-7.327615
21
-0.154127
0
LINE
8
Layer 1
10
-7.327615
20
-0.154127
11
-7.544273
21
0.952515
0
LINE
8
Layer 1
10
-7.544273
20
0.952515
11
-7.937945
21
2.014313
0
LINE
8
Layer 1
10
-7.937945
20
2.014313
11
-8.493842
21
3.001675
0
LINE
8
Layer 1
10
-8.493842
20
3.001675
11
-9.197180
21
3.885008
0
LINE
8
Layer 1
10
-9.197180
20
3.885008
11
-10.033171
21
4.634721
0
LINE
8
Layer 1
10
-10.033171
20
4.634721
11
-10.987030
21
5.221221
0
LINE
8
Layer 1
10
-10.987030
20
5.221221
11
-11.671641
21
5.496171
0
LINE
8
Layer 1
10
-11.671641
20
5.496171
11
-12.387120
21
5.589910
0
LINE
8
Layer 1
10
-12.387120
20
5.589910
11
-12.387120
21
5.589911
0
LINE
8
Layer 1
10
0.512307
20
-0.379099
11
-1.280273
21
-0.600671
0
LINE
8
Layer 1
10
-1.280273
20
-0.600671
11
-3.000604
21
-1.219113
0
LINE
8
Layer 1
10
-3.000604
20
-1.219113
11
-4.562328
21
-2.176511
0
LINE
8
Layer 1
10
-4.562328
20
-2.176511
11
-5.879083
21
-3.414949
0
LINE
8
Layer 1
10
-5.879083
20
-3.414949
11
-7.072654
21
-5.062385
0
LINE
8
Layer 1
10
-7.072654
20
-5.062385
11
-8.102392
21
-6.826573
0
LINE
8
Layer 1
10
-8.102392
20
-6.826573
11
-8.918280
21
-8.694559
0
LINE
8
Layer 1
10
-8.918280
20
-8.694559
11
-9.470303
21
-10.653389
0
LINE
8
Layer 1
10
-9.470303
20
-10.653389
11
-9.618354
21
-11.381934
0
LINE
8
Layer 1
10
-9.618354
20
-11.381934
11
-9.584614
21
-12.108498
0
LINE
8
Layer 1
10
-9.584614
20
-12.108498
11
-9.387409
21
-12.803957
0
LINE
8
Layer 1
10
-9.387409
20
-12.803957
11
-9.045065
21
-13.439185
0
LINE
8
Layer 1
10
-9.045065
20
-13.439185
11
-8.575906
21
-13.985059
0
LINE
8
Layer 1
10
-8.575906
20
-13.985059
11
-7.998257
21
-14.412454
0
LINE
8
Layer 1
10
-7.998257
20
-14.412454
11
-7.330444
21
-14.692246
0
LINE
8
Layer 1
10
-7.330444
20
-14.692246
11
-6.590793
21
-14.795309
0
LINE
8
Layer 1
10
-6.590793
20
-14.795309
11
-4.793816
21
-14.568120
0
LINE
8
Layer 1
10
-4.793816
20
-14.568120
11
-3.063204
21
-13.992007
0
LINE
8
Layer 1
10
-3.063204
20
-13.992007
11
-1.335197
21
-13.379436
0
LINE
8
Layer 1
10
-1.335197
20
-13.379436
11
0.453967
21
-13.042869
0
LINE
8
Layer 1
10
0.453967
20
-13.042869
11
1.978588
21
-13.039661
0
LINE
8
Layer 1
10
1.978588
20
-13.039661
11
3.442656
21
-13.395322
0
LINE
8
Layer 1
10
3.442656
20
-13.395322
11
6.273657
21
-14.517629
0
LINE
8
Layer 1
10
6.273657
20
-14.517629
11
7.552208
21
-14.844186
0
LINE
8
Layer 1
10
7.552208
20
-14.844186
11
8.871737
21
-14.769141
0
LINE
8
Layer 1
10
8.871737
20
-14.769141
11
10.044964
21
-14.244569
0
LINE
8
Layer 1
10
10.044964
20
-14.244569
11
10.518188
21
-13.798735
0
LINE
8
Layer 1
10
10.518188
20
-13.798735
11
10.884607
21
-13.222549
0
LINE
8
Layer 1
10
10.884607
20
-13.222549
11
11.095290
21
-11.895967
0
LINE
8
Layer 1
10
11.095290
20
-11.895967
11
10.876049
21
-10.565994
0
LINE
8
Layer 1
10
10.876049
20
-10.565994
11
10.390405
21
-9.272719
0
LINE
8
Layer 1
10
10.390405
20
-9.272719
11
9.801877
21
-8.056229
0
LINE
8
Layer 1
10
9.801877
20
-8.056229
11
8.574105
21
-6.160431
0
LINE
8
Layer 1
10
8.574105
20
-6.160431
11
7.229572
21
-4.329291
0
LINE
8
Layer 1
10
7.229572
20
-4.329291
11
5.694100
21
-2.675685
0
LINE
8
Layer 1
10
5.694100
20
-2.675685
11
3.893510
21
-1.312490
0
LINE
8
Layer 1
10
3.893510
20
-1.312490
11
2.250036
21
-0.601642
0
LINE
8
Layer 1
10
2.250036
20
-0.601642
11
0.512307
21
-0.379099
0
LINE
8
Layer 1
10
0.512307
20
-0.379099
11
0.512307
21
-0.379099
 0 
ENDSEC
 0 
EOF