<?xml version="1.0" encoding="UTF-8" standalone="no"?>
<!-- Created with Inkscape (http://www.inkscape.org/) -->

<svg
   width="77.744667mm"
   height="58.091591mm"
   viewBox="0 0 77.744666 58.091591"
   version="1.1"
   id="svg1"
   xml:space="preserve"
   inkscape:version="1.3 (0e150ed6c4, 2023-07-21)"
   sodipodi:docname="sheltie-two-traced.svg"
   xmlns:inkscape="http://www.inkscape.org/namespaces/inkscape"
   xmlns:sodipodi="http://sodipodi.sourceforge.net/DTD/sodipodi-0.dtd"
   xmlns="http://www.w3.org/2000/svg"
   xmlns:svg="http://www.w3.org/2000/svg"><sodipodi:namedview
     id="namedview1"
     pagecolor="#ffffff"
     bordercolor="#666666"
     borderopacity="1.0"
     inkscape:showpageshadow="2"
     inkscape:pageopacity="0.0"
     inkscape:pagecheckerboard="0"
     inkscape:deskcolor="#d1d1d1"
     inkscape:document-units="mm"
     inkscape:zoom="2.0062008"
     inkscape:cx="173.71143"
     inkscape:cy="218.32311"
     inkscape:window-width="2560"
     inkscape:window-height="1371"
     inkscape:window-x="0"
     inkscape:window-y="0"
     inkscape:window-maximized="1"
     inkscape:current-layer="layer1" /><defs
     id="defs1" /><g
     inkscape:label="Layer 1"
     inkscape:groupmode="layer"
     id="layer1"
     transform="translate(-65.924433,-119.59346)"><path
       style="fill:none;stroke:#000000;stroke-width:1;stroke-dasharray:none;stroke-opacity:1"
       d="m 79.485908,177.09019 c -0.123859,-0.056 -0.48379,-0.21754 -0.799846,-0.35885 -0.780354,-0.34891 -1.10672,-0.61553 -1.600544,-1.30757 -0.288408,-0.40416 -0.459448,-0.76055 -0.546288,-1.13828 -0.20636,-0.89759 -0.224084,-0.95573 -0.306929,-1.00694 -0.04363,-0.027 -0.07932,-0.10787 -0.07932,-0.17981 0,-0.0719 -0.07627,-0.30261 -0.169495,-0.51263 -0.340414,-0.76692 -0.40197,-0.9993 -0.389569,-1.47065 0.007,-0.26435 -0.02998,-0.50698 -0.08207,-0.53917 -0.06359,-0.0393 -0.07415,-0.43274 -0.03213,-1.19703 0.101296,-1.84259 -0.102404,-2.26448 -1.093335,-2.26448 -0.498546,0 -0.590694,0.0291 -0.820732,0.25913 -0.283314,0.28331 -0.47536,0.92784 -0.47536,1.59534 0,0.48815 -0.298498,1.15279 -0.618612,1.37742 -0.463593,0.3253 -1.099699,0.41713 -2.063208,0.29786 -0.48197,-0.0597 -1.10334,-0.10809 -1.380823,-0.10761 -0.65671,0.001 -0.978864,-0.11631 -1.76337,-0.6428 -0.894298,-0.60017 -0.938458,-0.83741 -0.299374,-1.60831 0.583755,-0.70417 0.588946,-1.18952 0.01617,-1.51144 -0.394746,-0.22186 -0.55664,-0.67471 -0.55664,-1.55702 0,-0.5526 0.08636,-0.79623 0.496463,-1.40055 0.123294,-0.18168 0.224171,-0.44226 0.224171,-0.57906 0,-0.13679 0.09812,-0.4605 0.218041,-0.71934 0.233097,-0.50311 0.224358,-0.58964 -0.108929,-1.07861 -0.181153,-0.26578 -0.205982,-0.38337 -0.158133,-0.74895 0.08123,-0.62057 0.418554,-1.29847 1.087417,-2.1853 0.320666,-0.42517 0.583029,-0.81175 0.583029,-0.85909 0,-0.14123 0.438638,-0.96331 0.755106,-1.4152 0.320701,-0.45794 1.046479,-1.83308 1.046479,-1.98279 0,-0.16742 0.671642,-1.17663 0.855752,-1.28585 0.09909,-0.0588 0.544979,-0.4974 0.990872,-0.97471 0.647294,-0.69289 0.849188,-0.9762 1.001589,-1.40548 0.25462,-0.71721 0.464972,-1.50632 0.671588,-2.5194 0.171392,-0.84037 0.320712,-1.38733 0.565604,-2.07182 0.124077,-0.3468 0.271243,-0.86054 0.327036,-1.14164 0.09951,-0.50138 0.832967,-1.93562 1.444065,-2.82382 0.336468,-0.48904 0.872958,-0.89509 1.798377,-1.36112 0.482805,-0.24314 0.871552,-0.53631 1.353038,-1.02038 1.0845,-1.09032 1.942838,-1.64162 3.988675,-2.56189 0.286344,-0.1288 0.560509,-0.23419 0.609257,-0.23419 0.04875,0 0.159019,-0.0386 0.245048,-0.0858 0.595734,-0.32687 3.503197,-1.03911 4.795496,-1.17475 1.103213,-0.11579 7.123897,0.21176 9.797981,0.53305 1.832655,0.22019 3.674875,0.57307 4.321935,0.82788 0.11148,0.0439 0.29389,0.11492 0.40536,0.15784 0.11147,0.0429 0.32028,0.13412 0.46403,0.20267 0.15334,0.0731 0.54425,0.12371 0.94583,0.12237 0.65007,-0.002 0.73882,-0.0289 1.76543,-0.53113 0.59452,-0.29087 1.5247,-0.68463 2.06705,-0.87502 0.54235,-0.19039 1.20752,-0.49861 1.47815,-0.68494 0.83061,-0.57186 0.9523,-0.64065 1.14539,-0.64746 0.38569,-0.0136 1.01077,-0.29417 1.27711,-0.57323 0.15177,-0.15901 0.42506,-0.57259 0.60732,-0.91908 0.18226,-0.34649 0.36378,-0.65051 0.40336,-0.6756 0.0396,-0.0251 0.1634,-0.2407 0.27514,-0.47913 0.27976,-0.59696 0.58623,-0.87589 1.40908,-1.28246 0.90302,-0.44617 1.36656,-0.87817 1.74739,-1.62846 0.42318,-0.83372 0.62649,-1.02267 1.5255,-1.4177 0.12386,-0.0544 0.40319,-0.25168 0.62072,-0.43834 0.21754,-0.18667 0.42915,-0.33939 0.47025,-0.33939 0.22631,0 1.13215,-0.51011 1.52427,-0.85836 0.3146,-0.27941 0.53319,-0.40275 0.71377,-0.40275 0.36511,0 0.69727,-0.36688 1.14898,-1.26906 0.42241,-0.84367 0.63476,-1.04735 1.65604,-1.58845 0.37422,-0.19827 0.78266,-0.42749 0.90764,-0.50938 0.12498,-0.0819 0.45726,-0.20881 0.7384,-0.28203 0.383,-0.0998 0.66311,-0.26163 1.11722,-0.6456 0.33334,-0.28186 0.64661,-0.55961 0.69615,-0.61722 0.40926,-0.47596 1.11431,-0.67317 2.40663,-0.67317 1.32669,0 1.94283,0.18361 2.47394,0.73723 0.4148,0.4324 0.45307,0.69786 0.17016,1.18062 -0.22917,0.39104 -0.23183,0.41361 -0.1095,0.93044 0.20022,0.84594 0.33053,1.06524 1.10245,1.85533 0.78535,0.80384 1.29473,1.49227 1.58349,2.14011 0.47079,1.05625 0.6614,1.36866 1.13809,1.86535 0.58398,0.60849 1.18803,1.06803 2.22441,1.69223 0.64323,0.38741 2.18049,1.4481 2.29702,1.58491 0.0248,0.0291 0.30852,0.22973 0.63055,0.44589 0.71171,0.47772 0.80418,0.58953 0.80785,0.97681 0.004,0.44841 -0.48286,1.39324 -0.90423,1.75392 -0.43439,0.37182 -2.02439,1.17195 -2.64348,1.33028 -0.24356,0.0623 -0.87187,0.11293 -1.39623,0.11254 -0.88851,-7.6e-4 -0.99629,-0.0208 -1.58394,-0.29621 -1.21168,-0.56788 -1.92395,-0.35603 -1.81775,0.54065 0.0449,0.37895 0.40297,1.15567 0.78831,1.70991 0.35963,0.51724 0.51688,1.3362 0.62198,3.23915 0.0561,1.01565 0.13677,1.96824 0.17928,2.11687 0.0425,0.14863 0.1842,0.69586 0.31487,1.21607 0.13067,0.5202 0.27778,1.10446 0.32692,1.29834 0.0833,0.32879 0.0571,0.41667 -0.39041,1.30615 -0.68299,1.35763 -0.77515,1.68734 -0.83301,2.98042 -0.11484,2.56623 -0.41182,4.14754 -0.87207,4.64337 -0.19337,0.20832 -0.25482,0.36331 -0.25482,0.64271 0,0.41734 -0.11018,0.52007 -0.85575,0.79786 -0.60167,0.22417 -1.21221,0.64247 -1.53637,1.05258 -0.25033,0.31671 -0.46892,0.42419 -1.14616,0.56354 -0.13772,0.0283 -0.33757,0.15179 -0.44412,0.27434 -0.1354,0.15571 -0.28637,0.22281 -0.50138,0.22281 -0.35853,0 -0.78158,0.27221 -0.95599,0.61513 -0.0673,0.13234 -0.17522,0.66624 -0.23978,1.18645 -0.15983,1.28759 -0.56462,2.01608 -0.9638,1.73451 -0.7529,-0.53108 -1.04004,-0.53586 -1.34338,-0.0223 -0.16359,0.27694 -0.22478,0.29553 -1.01477,0.30822 -0.35746,0.006 -0.41834,0.0392 -0.58552,0.32168 -0.16834,0.28445 -0.18528,0.44738 -0.17332,1.66647 0.007,0.74315 0.058,1.59171 0.1126,1.88568 0.0546,0.29398 0.0993,1.20821 0.0993,2.03162 0,1.60035 -0.0191,1.5094 0.56785,2.69615 0.12126,0.24517 0.45643,0.44928 1.05258,0.641 0.49008,0.15761 0.96048,0.61166 1.2586,1.21484 0.12193,0.2467 0.33135,0.61307 0.46539,0.81416 0.13403,0.20108 0.31052,0.59545 0.39218,0.87635 0.12551,0.43176 0.13016,0.54764 0.03,0.74931 -0.20513,0.41319 -0.77271,0.73972 -1.42458,0.81955 -0.71765,0.0879 -2.45953,0.008 -2.62591,-0.12033 -0.0668,-0.0516 -0.36472,-0.18822 -0.66198,-0.30364 -0.59353,-0.23046 -1.26867,-0.68094 -1.75654,-1.17205 -0.17341,-0.17455 -0.6193,-0.54763 -0.99088,-0.82906 -1.07329,-0.81293 -1.37156,-1.14274 -1.80016,-1.99048 -0.25426,-0.50292 -0.60543,-0.76919 -1.28266,-0.97256 -0.99271,-0.29811 -1.50438,-0.93737 -1.51442,-1.89207 -0.006,-0.54044 -0.32011,-1.65001 -0.66756,-2.3558 -0.30936,-0.62841 -0.74155,-0.91582 -1.25492,-0.83454 -1.28415,0.20332 -1.7566,0.15485 -2.75844,-0.28297 -0.1734,-0.0758 -0.39634,-0.16843 -0.49543,-0.20588 -0.76622,-0.28965 -2.56826,-1.36751 -3.24395,-1.94031 -0.23377,-0.19818 -0.62581,-0.63017 -0.8712,-0.95998 -0.47032,-0.63213 -0.6023,-0.71166 -1.46976,-0.88575 -1.0508,-0.21089 -1.56367,-0.34673 -1.88524,-0.49932 -0.33656,-0.15971 -0.68202,-0.55781 -0.68202,-0.78596 0,-0.0718 -0.10367,-0.24244 -0.23037,-0.37915 -0.1983,-0.21397 -0.27042,-0.23848 -0.51796,-0.17606 -0.15817,0.0399 -0.49026,0.0749 -0.73798,0.0778 -0.34993,0.004 -0.54081,0.0672 -0.85575,0.28285 -0.63722,0.43638 -1.185,0.59503 -2.612296,0.75661 -1.119815,0.12676 -3.389597,0.0777 -3.963486,-0.0857 -0.625573,-0.17809 -1.739178,-0.21247 -2.924916,-0.0903 -0.980848,0.10104 -1.098884,0.1329 -1.306149,0.35258 -0.125321,0.13283 -0.491339,0.41693 -0.813372,0.63134 -0.322033,0.21441 -1.09221,0.88572 -1.711505,1.49181 -1.205698,1.17998 -1.518297,1.39521 -2.026404,1.39521 -0.323603,0 -0.360715,0.0264 -0.933145,0.66437 -0.190623,0.21245 -0.276062,0.23642 -0.842607,0.23642 h -0.630475 l -0.518796,0.53019 c -0.326543,0.33372 -0.648534,0.57085 -0.868897,0.63988 -0.769678,0.24114 -0.798726,0.27166 -0.818832,0.86037 -0.04398,1.2879 0.371055,2.84183 0.801753,3.0018 0.114099,0.0424 0.569377,0.10569 1.011729,0.1407 1.21388,0.0961 1.762981,0.46493 1.762981,1.18426 0,0.31343 -0.0464,0.42217 -0.247718,0.58054 -0.352594,0.27739 -0.803,0.44864 -1.182031,0.44944 -0.179738,2.6e-4 -0.585345,0.0793 -0.901349,0.1754 -0.42527,0.16132 -1.177078,0.77344 -0.858212,1.266 0.433841,0.23149 0.957564,0.17863 1.275304,0.41842 0.634991,0.47921 0.869862,1.59152 0.429125,2.03226 -0.221767,0.22177 -0.238907,0.22384 -1.914183,0.23172 -1.081974,0.005 -1.771469,-0.0288 -1.91561,-0.094 z"
       id="path1"
       sodipodi:nodetypes="cssscsscssssssccsssssssssssssccssssssssscsssccccscssssscscssssssscscscsssssssscsscscssssccssssscssscsscscssssssscscsscsscssccssssssccccccsssssscscsccsccccssccc" /></g></svg>
