<?xml version="1.0" encoding="UTF-8" standalone="no"?>
<!-- Created with Inkscape (http://www.inkscape.org/) -->

<svg
   width="77.000023mm"
   height="65.422859mm"
   viewBox="0 0 77.000023 65.422859"
   version="1.1"
   id="svg1"
   xml:space="preserve"
   inkscape:version="1.3 (0e150ed6c4, 2023-07-21)"
   sodipodi:docname="sheltie-one-traced.svg"
   xmlns:inkscape="http://www.inkscape.org/namespaces/inkscape"
   xmlns:sodipodi="http://sodipodi.sourceforge.net/DTD/sodipodi-0.dtd"
   xmlns="http://www.w3.org/2000/svg"
   xmlns:svg="http://www.w3.org/2000/svg"><sodipodi:namedview
     id="namedview1"
     pagecolor="#ffffff"
     bordercolor="#666666"
     borderopacity="1.0"
     inkscape:showpageshadow="2"
     inkscape:pageopacity="0.0"
     inkscape:pagecheckerboard="0"
     inkscape:deskcolor="#d1d1d1"
     inkscape:document-units="mm"
     inkscape:zoom="1.0031004"
     inkscape:cx="-178.44674"
     inkscape:cy="190.40965"
     inkscape:window-width="2560"
     inkscape:window-height="1371"
     inkscape:window-x="0"
     inkscape:window-y="0"
     inkscape:window-maximized="1"
     inkscape:current-layer="layer1" /><defs
     id="defs1" /><g
     inkscape:label="Layer 1"
     inkscape:groupmode="layer"
     id="layer1"
     transform="translate(-112.11106,-168.99945)"><path
       style="fill:none;stroke:#000000;stroke-width:1;stroke-opacity:1;stroke-dasharray:none"
       d="m 176.30946,233.39975 c -1.02191,-0.31083 -1.55222,-0.76695 -1.55222,-1.33505 0,-0.41968 0.0668,-0.50218 0.67755,-0.83672 1.08528,-0.59451 1.05775,-1.14058 -0.0829,-1.64516 -1.00487,-0.44451 -0.93943,-1.05392 0.23292,-2.16917 0.49529,-0.47114 0.52225,-0.53941 0.52225,-1.32247 0,-1.50713 -0.8357,-3.08282 -1.79518,-3.38484 -0.23755,-0.0748 -0.80595,-0.20677 -1.26308,-0.29332 -1.00763,-0.19074 -1.85521,-0.6595 -3.2964,-1.82304 -1.18587,-0.95739 -1.15942,-0.98323 -0.59615,0.58238 l 0.30351,0.8436 h -0.29909 c -0.49447,0 -2.36153,-0.51765 -3.12081,-0.86525 -0.94823,-0.43412 -1.81619,-1.2579 -2.32345,-2.20516 -0.22865,-0.427 -0.50418,-0.89589 -0.61225,-1.04196 -0.188,-0.25407 -0.20659,-0.24238 -0.42928,0.26996 -0.12802,0.29453 -0.37147,0.92136 -0.54099,1.39294 l -0.30821,0.85744 -0.46085,-0.72246 c -0.25348,-0.39735 -1.00126,-1.56985 -1.66177,-2.60557 l -1.20091,-1.88312 -0.092,0.46589 c -0.0507,0.25623 -0.19897,1.36177 -0.3297,2.45675 -0.13072,1.09498 -0.29341,1.99089 -0.36158,1.99089 -0.13535,0 -1.30587,-0.89946 -2.25609,-1.73366 l -0.60048,-0.52715 -0.79723,1.02917 c -0.43847,0.56605 -0.88494,1.15066 -0.99214,1.29912 -0.19077,0.26421 -0.20121,0.26134 -0.49065,-0.13503 -0.67328,-0.92189 -1.35075,-1.5522 -1.66829,-1.5522 -0.37344,0 -1.31136,0.81436 -1.87551,1.62844 -0.43442,0.62685 -0.49278,0.58037 -0.73124,-0.58239 -0.0875,-0.42685 -0.20752,-0.7761 -0.26658,-0.7761 -0.0592,0 -0.43439,0.13152 -0.83404,0.29224 -1.0258,0.4126 -1.54909,0.94442 -1.75498,1.78362 -0.17251,0.70315 -0.20065,4.38388 -0.0411,5.38151 l 0.081,0.50616 -0.7205,2.2e-4 c -0.41541,1.1e-4 -0.9205,0.10011 -1.19288,0.23619 -0.64085,0.32015 -0.68061,0.77472 -0.15002,1.71496 l 0.40901,0.72472 -0.97311,0.34011 c -0.586,0.20479 -1.42955,0.3718 -2.12043,0.4198 -1.40912,0.0979 -1.66025,0.25881 -2.30772,1.47872 l -0.48556,0.91488 -0.60964,-0.95288 -0.60963,-0.95287 -0.25093,0.55644 c -0.80979,1.79576 -1.35328,2.04793 -4.26403,1.97841 -1.88083,-0.045 -2.1285,-0.0799 -2.73595,-0.38583 -0.51534,-0.25956 -0.74746,-0.48659 -1.01605,-0.99372 -0.23466,-0.44311 -0.50085,-0.72917 -0.8168,-0.8778 -0.8047,-0.37857 -0.64039,-1.3602 0.41306,-2.46759 0.43542,-0.45772 0.56825,-0.51899 1.12532,-0.51899 0.56422,0 0.64698,-0.0395 0.77539,-0.37117 0.0791,-0.20416 0.23898,-1.343 0.35538,-2.53079 0.22374,-2.28349 0.17429,-3.02549 -0.30934,-4.64068 l -0.2175,-0.72642 -0.58727,0.57635 -0.58725,0.57637 -0.07,-0.45734 c -0.0386,-0.25154 -0.1947,-1.25693 -0.34705,-2.23422 -0.15241,-0.97727 -0.27701,-1.90355 -0.27701,-2.05836 0,-0.1548 -0.0497,-0.2815 -0.11048,-0.2815 -0.0607,0 -0.52133,0.60738 -1.02352,1.34975 -0.50219,0.74237 -0.93109,1.34976 -0.95312,1.34976 -0.0442,0 -1.69472,-2.9505 -2.18971,-3.91429 -0.17158,-0.33406 -0.46467,-1.21051 -0.65135,-1.94764 -0.18667,-0.73716 -0.35755,-1.35843 -0.37974,-1.38063 -0.0222,-0.0222 -0.24377,0.45716 -0.49238,1.06523 l -0.45204,1.10557 -0.43555,-0.95776 c -0.23954,-0.52677 -0.6881,-1.3902 -0.9968,-1.91875 -0.80991,-1.38676 -1.22402,-2.59663 -1.40351,-4.10047 l -0.15767,-1.3205 -0.51311,0.42382 c -0.2822,0.2331 -0.5327,0.40164 -0.55666,0.37454 -0.1874,-0.21208 -1.04284,-2.67517 -1.20508,-3.46986 -0.23883,-1.16976 -0.11335,-2.90045 0.31999,-4.41596 0.1473,-0.51481 0.26766,-1.07359 0.26766,-1.24173 0,-0.28107 -0.0435,-0.29875 -0.53989,-0.21938 -0.6316,0.10107 -0.63074,0.10442 -0.26851,-1.06835 0.36467,-1.18069 1.11503,-2.15943 3.02167,-3.94139 1.4244,-1.33125 1.64315,-1.59875 2.11607,-2.58779 0.48274,-1.00957 0.59556,-1.14444 1.33104,-1.59123 0.82996,-0.50417 1.09061,-0.89205 0.81919,-1.21907 -0.32229,-0.38836 -2.29605,-0.8374 -4.99483,-1.13634 -2.14582,-0.23769 -3.15153,-0.76609 -4.4006,-2.31203 -0.41738,-0.51658 -0.79815,-0.93923 -0.84617,-0.93923 -0.048,0 -0.16404,-0.12292 -0.25783,-0.27307 -0.25469,-0.40782 0.006,-0.77341 0.82493,-1.15273 0.64631,-0.29971 1.50456,-0.51958 4.985,-1.27708 1.58251,-0.34443 1.95583,-0.61417 2.58928,-1.87089 0.57342,-1.13763 0.75742,-1.29514 2.04872,-1.75379 2.09211,-0.74308 2.94188,-1.3524 3.41282,-2.44713 0.2562,-0.59556 0.27209,-0.74366 0.13056,-1.21617 -0.2353,-0.78538 -0.0359,-1.1028 1.01896,-1.62212 0.81406,-0.40075 0.96283,-0.43013 1.86462,-0.36818 1.38319,0.095 2.48119,0.51435 3.12011,1.19158 0.50688,0.53724 0.51808,0.57056 0.42989,1.27646 l -0.0906,0.72481 0.98735,0.73762 c 1.06384,0.79475 2.75072,2.47484 4.96629,4.94625 5.17455,5.7721 8.29955,8.28259 12.01562,9.65285 1.42561,0.52567 3.42365,0.59969 6.0064,0.22251 3.2891,-0.48031 5.6326,-0.61346 7.65458,-0.43492 3.40153,0.30036 6.49113,1.13911 9.55476,2.59388 3.67999,1.74746 7.092,4.43935 8.64822,6.82301 1.24655,1.9093 1.6487,3.26587 2.09029,7.05108 0.25163,2.15685 0.44033,2.81423 1.33152,4.63837 0.33316,0.68193 0.76348,1.86601 0.95626,2.6313 0.32774,1.30099 0.88641,4.75107 0.78887,4.87178 -0.0391,0.0483 -0.34506,-0.29939 -0.81276,-0.92336 -0.0867,-0.11574 -0.19016,-0.17791 -0.22984,-0.13821 -0.0795,0.0796 0.35375,3.21651 0.57731,4.17915 0.16064,0.69181 0.20064,4.99413 0.0464,4.994 -0.0556,-4e-5 -0.45047,-0.27426 -0.87734,-0.60936 -0.77565,-0.60892 -0.7761,-0.60906 -0.7761,-0.25223 0,1.09218 0.45978,3.13696 0.90348,4.01804 l 0.46976,0.93281 -0.63814,-0.0875 c -0.86534,-0.11861 -1.67829,-0.54755 -2.76156,-1.45711 l -0.90869,-0.76297 -0.0773,1.77495 c -0.14937,3.42747 -0.82308,4.55211 -3.00357,5.01403 -1.19353,0.25284 -3.03637,0.24279 -3.90459,-0.0214 z"
       id="path1" /></g></svg>
