999
"DXF R12 Output" (www.mydxf.blogspot.com)
 0 
SECTION
 2 
HEADER
 9 
$ACADVER
 1 
AC1009
 9 
$EXTMIN
 10 
 0 
 20 
 0 
 9 
$EXTMAX
 10 
 8.5 
 20 
 11 
 0 
ENDSEC
 0 
SECTION
 2 
ENTITIES
0
LINE
8
Layer 1
10
-0.024742
20
-2.582430
11
-0.359982
21
-1.886146
0
LINE
8
Layer 1
10
-0.359982
20
-1.886146
11
-1.007145
21
-1.219670
0
LINE
8
Layer 1
10
-1.007145
20
-1.219670
11
-1.956596
21
-0.758913
0
LINE
8
Layer 1
10
-1.956596
20
-0.758913
11
-3.210535
21
-0.526804
0
LINE
8
Layer 1
10
-3.210535
20
-0.526804
11
-4.024985
21
-0.497952
0
LINE
8
Layer 1
10
-4.024985
20
-0.497952
11
-4.867155
21
-0.523578
0
LINE
8
Layer 1
10
-4.867155
20
-0.523578
11
-4.993023
21
-0.527868
0
LINE
8
Layer 1
10
-4.993023
20
-0.527868
11
-4.978489
21
-0.438017
0
LINE
8
Layer 1
10
-4.978489
20
-0.438017
11
-4.934747
21
-0.006378
0
LINE
8
Layer 1
10
-4.934747
20
-0.006378
11
-4.970962
21
0.378319
0
LINE
8
Layer 1
10
-4.970962
20
0.378319
11
-5.309174
21
1.106223
0
LINE
8
Layer 1
10
-5.309174
20
1.106223
11
-6.276572
21
1.908146
0
LINE
8
Layer 1
10
-6.276572
20
1.908146
11
-6.958251
21
2.234183
0
LINE
8
Layer 1
10
-6.958251
20
2.234183
11
-7.055468
21
2.273364
0
LINE
8
Layer 1
10
-7.055468
20
2.273364
11
-4.711858
21
2.275057
0
LINE
8
Layer 1
10
-4.711858
20
2.275057
11
-2.366098
21
2.274775
0
LINE
8
Layer 1
10
-2.366098
20
2.274775
11
-2.345016
21
2.182906
0
LINE
8
Layer 1
10
-2.345016
20
2.182906
11
-2.137914
21
1.643205
0
LINE
8
Layer 1
10
-2.137914
20
1.643205
11
-1.785759
21
1.331781
0
LINE
8
Layer 1
10
-1.785759
20
1.331781
11
-1.324679
21
1.211814
0
LINE
8
Layer 1
10
-1.324679
20
1.211814
11
-0.821734
21
1.161085
0
LINE
8
Layer 1
10
-0.821734
20
1.161085
11
-0.556657
21
1.210900
0
LINE
8
Layer 1
10
-0.556657
20
1.210900
11
-0.517431
21
1.317004
0
LINE
8
Layer 1
10
-0.517431
20
1.317004
11
-0.479850
21
1.731503
0
LINE
8
Layer 1
10
-0.479850
20
1.731503
11
-0.464695
21
1.949661
0
LINE
8
Layer 1
10
-0.464695
20
1.949661
11
-0.428946
21
2.091520
0
LINE
8
Layer 1
10
-0.428946
20
2.091520
11
-0.415399
21
2.053143
0
LINE
8
Layer 1
10
-0.415399
20
2.053143
11
-0.309055
21
1.634949
0
LINE
8
Layer 1
10
-0.309055
20
1.634949
11
-0.277260
21
1.574647
0
LINE
8
Layer 1
10
-0.277260
20
1.574647
11
0.277207
21
1.574647
0
LINE
8
Layer 1
10
0.277207
20
1.574647
11
0.309050
21
1.634949
0
LINE
8
Layer 1
10
0.309050
20
1.634949
11
0.415397
21
2.053143
0
LINE
8
Layer 1
10
0.415397
20
2.053143
11
0.428944
21
2.091520
0
LINE
8
Layer 1
10
0.428944
20
2.091520
11
0.464690
21
1.949661
0
LINE
8
Layer 1
10
0.464690
20
1.949661
11
0.479845
21
1.731503
0
LINE
8
Layer 1
10
0.479845
20
1.731503
11
0.517426
21
1.317004
0
LINE
8
Layer 1
10
0.517426
20
1.317004
11
0.556655
21
1.210900
0
LINE
8
Layer 1
10
0.556655
20
1.210900
11
0.821735
21
1.161085
0
LINE
8
Layer 1
10
0.821735
20
1.161085
11
1.324680
21
1.211814
0
LINE
8
Layer 1
10
1.324680
20
1.211814
11
1.785760
21
1.331781
0
LINE
8
Layer 1
10
1.785760
20
1.331781
11
2.137912
21
1.643205
0
LINE
8
Layer 1
10
2.137912
20
1.643205
11
2.345017
21
2.182906
0
LINE
8
Layer 1
10
2.345017
20
2.182906
11
2.366099
21
2.274775
0
LINE
8
Layer 1
10
2.366099
20
2.274775
11
4.711849
21
2.275057
0
LINE
8
Layer 1
10
4.711849
20
2.275057
11
7.055469
21
2.273364
0
LINE
8
Layer 1
10
7.055469
20
2.273364
11
6.958257
21
2.234183
0
LINE
8
Layer 1
10
6.958257
20
2.234183
11
6.276572
21
1.908146
0
LINE
8
Layer 1
10
6.276572
20
1.908146
11
5.309174
21
1.106223
0
LINE
8
Layer 1
10
5.309174
20
1.106223
11
4.970962
21
0.378319
0
LINE
8
Layer 1
10
4.970962
20
0.378319
11
4.934745
21
-0.006378
0
LINE
8
Layer 1
10
4.934745
20
-0.006378
11
4.978489
21
-0.438017
0
LINE
8
Layer 1
10
4.978489
20
-0.438017
11
4.993024
21
-0.527868
0
LINE
8
Layer 1
10
4.993024
20
-0.527868
11
4.867150
21
-0.523578
0
LINE
8
Layer 1
10
4.867150
20
-0.523578
11
4.024980
21
-0.497952
0
LINE
8
Layer 1
10
4.024980
20
-0.497952
11
3.210530
21
-0.526804
0
LINE
8
Layer 1
10
3.210530
20
-0.526804
11
1.956592
21
-0.758913
0
LINE
8
Layer 1
10
1.956592
20
-0.758913
11
1.007140
21
-1.219670
0
LINE
8
Layer 1
10
1.007140
20
-1.219670
11
0.359980
21
-1.886146
0
LINE
8
Layer 1
10
0.359980
20
-1.886146
11
0.024737
21
-2.582430
0
LINE
8
Layer 1
10
0.024737
20
-2.582430
11
-0.000014
21
-2.646060
0
LINE
8
Layer 1
10
-0.000014
20
-2.646060
11
-0.024765
21
-2.582430
0
LINE
8
Layer 1
10
-0.024765
20
-2.582430
11
-0.024742
21
-2.582430
 0 
ENDSEC
 0 
EOF