<?xml version="1.0" encoding="UTF-8" standalone="no"?>
<!-- Created with Inkscape (http://www.inkscape.org/) -->

<svg
   version="1.1"
   id="svg1"
   width="114"
   height="70"
   viewBox="0 0 114 70"
   sodipodi:docname="logo-mifri.svg"
   inkscape:version="1.3.2 (091e20ef0f, 2023-11-25)"
   xmlns:inkscape="http://www.inkscape.org/namespaces/inkscape"
   xmlns:sodipodi="http://sodipodi.sourceforge.net/DTD/sodipodi-0.dtd"
   xmlns="http://www.w3.org/2000/svg"
   xmlns:svg="http://www.w3.org/2000/svg">
  <defs
     id="defs1">
    <inkscape:path-effect
       effect="spiro"
       id="path-effect19"
       is_visible="true"
       lpeversion="1" />
    <inkscape:path-effect
       effect="spiro"
       id="path-effect18"
       is_visible="true"
       lpeversion="1" />
    <inkscape:path-effect
       effect="spiro"
       id="path-effect13"
       is_visible="true"
       lpeversion="1" />
    <inkscape:path-effect
       effect="spiro"
       id="path-effect12"
       is_visible="true"
       lpeversion="1" />
    <inkscape:path-effect
       effect="spiro"
       id="path-effect11"
       is_visible="true"
       lpeversion="1" />
    <inkscape:path-effect
       effect="spiro"
       id="path-effect10"
       is_visible="true"
       lpeversion="1" />
    <inkscape:path-effect
       effect="spiro"
       id="path-effect9"
       is_visible="true"
       lpeversion="1" />
  </defs>
  <sodipodi:namedview
     id="namedview1"
     pagecolor="#ffffff"
     bordercolor="#000000"
     borderopacity="0.25"
     inkscape:showpageshadow="2"
     inkscape:pageopacity="0.0"
     inkscape:pagecheckerboard="0"
     inkscape:deskcolor="#d1d1d1"
     showgrid="true"
     inkscape:zoom="11.313709"
     inkscape:cx="63.020889"
     inkscape:cy="40.702832"
     inkscape:window-width="2560"
     inkscape:window-height="1356"
     inkscape:window-x="0"
     inkscape:window-y="0"
     inkscape:window-maximized="1"
     inkscape:current-layer="g1">
    <inkscape:grid
       id="grid1"
       units="px"
       originx="0"
       originy="0"
       spacingx="1"
       spacingy="1"
       empcolor="#0099e5"
       empopacity="0.30196078"
       color="#0099e5"
       opacity="0.14901961"
       empspacing="5"
       dotted="false"
       gridanglex="30"
       gridanglez="30"
       visible="true" />
  </sodipodi:namedview>
  <g
     inkscape:groupmode="layer"
     inkscape:label="Image"
     id="g1">
    <path
       style="color:#000000;fill:#000000;-inkscape-stroke:none"
       d="m 56.919922,0.359375 c -19.136383,0 -34.660157,15.523773 -34.660156,34.660156 0,19.136383 15.523773,34.660156 34.660156,34.660156 19.136383,0 34.660156,-15.523773 34.660156,-34.660156 0,-19.136383 -15.523773,-34.660156 -34.660156,-34.660156 z m 0,1 c 18.595943,0 33.660156,15.064213 33.660156,33.660156 0,18.595943 -15.064213,33.660156 -33.660156,33.660156 -18.595943,0 -33.660156,-15.064213 -33.660156,-33.660156 -10e-7,-18.595943 15.064213,-33.660156 33.660156,-33.660156 z"
       id="path4" />
    <path
       style="fill:none;fill-opacity:1;stroke:#000000;stroke-opacity:1"
       d="M 0.01100752,69.965808 C 6.3619998,66.816957 13.0989,64.447395 20.022708,62.927116 c 4.921227,-1.080567 9.936369,-1.733061 14.970257,-1.947703 m 44.046657,-0.04683 c 5.025499,0.247421 10.029839,0.923169 14.940975,2.017517 6.916743,1.541256 13.647663,3.914648 20.001363,7.052687"
       id="path10"
       inkscape:path-effect="#path-effect11"
       inkscape:original-d="M 0.01100752,69.965808 C 9.4185373,68.272419 13.143929,64.565305 20.022708,62.927116 c 4.895238,-1.165807 5.465791,-1.859847 14.970257,-1.947703 m 44.046657,-0.04683 c 9.588942,-0.08864 10.05547,0.839494 14.940975,2.017517 6.872493,1.657136 20.001363,7.052687 20.001363,7.052687"
       sodipodi:nodetypes="caccac" />
    <path
       style="fill:none;fill-opacity:1;stroke:#000000;stroke-opacity:1"
       d="M 0.01640252,0.01048542 C 6.4082382,2.9805956 13.123968,5.2530473 20.005992,6.7745126 24.940544,7.8654342 29.96025,8.5709511 35.004339,8.8825219 m 44.014807,0.010704 C 84.085063,8.6068724 89.127725,7.9101274 94.081488,6.8120605 100.94526,5.2906145 107.63763,2.9972707 113.99195,-0.0108621"
       id="path11"
       inkscape:path-effect="#path-effect12"
       inkscape:original-d="M 0.01640252,0.01048542 C 9.4627413,1.6969131 13.16168,5.1505842 20.005992,6.7745126 c 4.912213,1.1655052 2.625626,2.1348977 14.998347,2.1080093 m 44.014807,0.010704 c 12.45325,-0.027063 10.131666,-0.9073157 15.062342,-2.081165 6.824942,-1.6248183 19.910462,-6.8229226 19.910462,-6.8229226"
       sodipodi:nodetypes="caccac" />
    <path
       style="fill:none;fill-opacity:1;stroke:#000000;stroke-opacity:1"
       d="M 0.00756198,-8.9224401e-4 C 6.9613323,10.240681 10.761562,22.592491 10.767432,34.971696 10.773309,47.364403 6.9762975,59.733178 0.01800159,69.987999"
       id="path8"
       inkscape:path-effect="#path-effect9"
       inkscape:original-d="m 0.00756198,-8.9224401e-4 c 0,0 10.75606902,22.77579224401 10.75987002,34.97258824401 0.0038,12.209703 -10.74943041,35.016303 -10.74943041,35.016303"
       sodipodi:nodetypes="cac" />
    <path
       style="fill:none;fill-opacity:1;stroke:#000000;stroke-opacity:1"
       d="M 113.99015,0.01082281 C 107.48637,10.442565 103.9757,22.717357 103.98003,35.01046 c 0.004,12.283581 3.51806,24.546453 10.01964,34.968347"
       id="path9"
       inkscape:path-effect="#path-effect10"
       inkscape:original-d="M 113.99015,0.01082281 C 110.24989,11.567064 103.97707,22.876133 103.98003,35.01046 c 0.003,12.125173 6.30054,23.302747 10.01964,34.968347"
       sodipodi:nodetypes="cac" />
    <path
       style="fill:none;fill-opacity:1;stroke:#000000;stroke-opacity:1"
       d="m 83.60813,0.02018171 c 1.575803,1.59246459 3.795536,2.52854649 6.035807,2.54535609 2.285852,0.017152 4.563831,-0.9246614 6.170187,-2.55101682"
       id="path12"
       inkscape:path-effect="#path-effect13"
       inkscape:original-d="m 83.60813,0.02018171 c 1.964845,0.84845203 3.852301,2.53767069 6.035807,2.54535609 2.225567,0.00783 6.170187,-2.55101682 6.170187,-2.55101682"
       sodipodi:nodetypes="cac" />
    <path
       style="fill:none;fill-opacity:1;stroke:#000000;stroke-opacity:1"
       d="m 83.647226,0.00615643 c 0.410011,1.38394837 0.706323,2.80156307 0.884971,4.23387127 0.183428,1.4706312 0.242791,2.9567166 0.177252,4.437293"
       id="path17"
       inkscape:path-effect="#path-effect18"
       inkscape:original-d="m 83.647226,0.00615643 c 0,0 0.708092,2.80297167 0.884971,4.23387127 0.1816,1.4690957 0.177252,4.437293 0.177252,4.437293"
       sodipodi:nodetypes="cac" />
    <path
       style="fill:none;fill-opacity:1;stroke:#000000;stroke-opacity:1"
       d="M 95.181822,3.2001867 95.781971,0.04877774 C 95.528828,1.0857112 95.336805,2.1375623 95.207231,3.1970542 95.074829,4.2796696 95.007636,5.370256 95.006137,6.4609366"
       id="path18"
       inkscape:path-effect="#path-effect19"
       inkscape:original-d="M 95.181822,3.2001867 95.781971,0.04877774 C 95.581922,1.0765525 95.33605,2.1380913 95.207231,3.1970542 95.075604,4.2791015 95.064699,5.37402 95.006137,6.4609366"
       sodipodi:nodetypes="ccac" />
    <path
       style="color:#000000;fill:#000000;-inkscape-stroke:none"
       d="m 56.966797,22.154297 c -7.060467,0 -12.794922,5.734454 -12.794922,12.794922 0,7.060467 5.734455,12.794922 12.794922,12.794922 7.060467,-10e-7 12.794922,-5.734455 12.794922,-12.794922 0,-7.060467 -5.734455,-12.794922 -12.794922,-12.794922 z m 0,1 c 6.520027,0 11.794922,5.274894 11.794922,11.794922 0,6.520027 -5.274895,11.794921 -11.794922,11.794922 -6.520028,0 -11.794922,-5.274895 -11.794922,-11.794922 0,-6.520028 5.274894,-11.794922 11.794922,-11.794922 z"
       id="path2" />
    <path
       style="color:#000000;fill:#000000;-inkscape-stroke:none"
       d="m 56.986328,7.5332031 c -15.25362,0 -27.630859,12.3752869 -27.630859,27.6289059 -1e-6,15.253621 12.377239,27.63086 27.630859,27.63086 15.25362,0 27.628907,-12.377239 27.628906,-27.63086 0,-15.253619 -12.375286,-27.6289059 -27.628906,-27.6289059 z m 0,1 c 14.71318,0 26.628906,11.9157259 26.628906,26.6289059 10e-7,14.713181 -11.915725,26.63086 -26.628906,26.63086 -14.713181,0 -26.63086,-11.917679 -26.630859,-26.63086 0,-14.71318 11.917679,-26.6289059 26.630859,-26.6289059 z"
       id="path3" />
  </g>
</svg>
